<?xml version="1.0" encoding="UTF-8"?>
<svg version="1.1" xmlns="http://www.w3.org/2000/svg" width="512" height="512">
<path d="M0 0 C7.41786573 6.247366 15.22915218 12.92103687 20.79443359 20.90600586 C20.79443359 21.56600586 20.79443359 22.22600586 20.79443359 22.90600586 C22.20752808 22.87458496 22.20752808 22.87458496 23.64916992 22.8425293 C27.19598473 22.77373097 30.74207494 22.72390772 34.28930664 22.6862793 C35.81481219 22.66635275 37.34024328 22.63920101 38.86547852 22.60424805 C52.61522202 22.29739457 63.50057174 24.07916231 73.79443359 33.90600586 C82.95971082 43.50686062 85.40307511 53.78015744 85.30236816 66.77172852 C85.31172811 68.64853522 85.31172811 68.64853522 85.32127714 70.56325722 C85.33785239 74.00619822 85.32977872 77.4486912 85.31733227 80.89163303 C85.30823519 84.61632259 85.32227445 88.34093821 85.33325195 92.06561279 C85.35099236 99.35039049 85.34721726 106.63500288 85.33560139 113.91978693 C85.32654964 119.84288032 85.32535058 125.76592755 85.32969666 131.68902588 C85.33030959 132.53362008 85.33092252 133.37821428 85.33155403 134.24840224 C85.33283299 135.96444433 85.33412985 137.68048641 85.33544439 139.39652848 C85.34683707 155.46919388 85.33375712 171.54176786 85.31224293 187.61441827 C85.29437313 201.39069635 85.29747761 215.16683959 85.31591797 228.94311523 C85.33734791 244.96020666 85.34573855 260.97721806 85.33346891 276.99432182 C85.33219478 278.70387648 85.3309373 280.41343116 85.32969666 282.12298584 C85.328771 283.38452341 85.328771 283.38452341 85.32782665 284.67154658 C85.32438011 290.58413091 85.33018704 296.49666428 85.33961487 302.40924072 C85.35085986 309.61958911 85.34774245 316.82976342 85.32649189 324.04009199 C85.31601494 327.71546217 85.31180181 331.39054263 85.3250885 335.06591034 C85.33930001 339.05761766 85.32227534 343.04860024 85.30236816 347.0402832 C85.31575249 348.76691161 85.31575249 348.76691161 85.32940722 350.5284214 C85.21724754 362.1523189 81.86980248 371.44685706 73.79443359 379.90600586 C63.56686989 389.66955911 52.80484564 391.51198313 39.05151367 391.36010742 C37.60163403 391.35897661 36.1517521 391.35961736 34.70187378 391.36187744 C30.79955179 391.36301642 26.89773025 391.33964111 22.99552369 391.31158161 C18.90497575 391.28643035 14.814414 391.28421521 10.72380066 391.27947998 C2.99275172 391.26709026 -4.73806865 391.23432342 -12.46901733 391.19408202 C-21.27681127 391.14923901 -30.08461663 391.12734589 -38.89249647 391.10730028 C-56.99698228 391.06558679 -75.10125591 390.99531338 -93.20556641 390.90600586 C-92.71697144 391.85654846 -92.71697144 391.85654846 -92.21850586 392.82629395 C-89.14136215 398.81982705 -86.07993834 404.82109921 -83.03562927 410.83138275 C-81.4702176 413.92057836 -79.89903756 417.00653336 -78.31396484 420.08569336 C-76.48907328 423.63137373 -74.69052919 427.19008696 -72.89306641 430.74975586 C-72.32434814 431.8459021 -71.75562988 432.94204834 -71.16967773 434.07141113 C-68.2468556 439.91366256 -66.0668487 444.34184925 -67.20556641 450.90600586 C-69.4145619 453.90427656 -70.59814392 454.80752569 -74.31030273 455.40937042 C-75.54031006 455.41087852 -76.77031738 455.41238663 -78.03759766 455.41394043 C-79.06754601 455.42330037 -79.06754601 455.42330037 -80.11830139 455.43284941 C-82.41857261 455.44880154 -84.71778737 455.43616754 -87.01806641 455.42358398 C-88.667324 455.42900416 -90.31657675 455.43612623 -91.96582031 455.44482422 C-96.44516856 455.46307311 -100.92414866 455.45598366 -105.40350342 455.44330788 C-110.08883667 455.43318829 -114.77413818 455.44257066 -119.45947266 455.44885254 C-127.32801988 455.45613199 -135.19641697 455.44653346 -143.06494141 455.42749023 C-152.16502411 455.4057209 -161.26474837 455.41277206 -170.36482239 455.43479586 C-178.1746986 455.4529414 -185.98446683 455.45551233 -193.7943573 455.44504118 C-198.46029538 455.43880159 -203.12606491 455.43798338 -207.79199219 455.45118713 C-212.17845458 455.46273275 -216.56445434 455.45474373 -220.9508667 455.43161011 C-222.56173941 455.42631608 -224.17265099 455.42784866 -225.7835083 455.43666077 C-227.98071141 455.44757326 -230.17642714 455.43390726 -232.37353516 455.41394043 C-234.21854614 455.41167828 -234.21854614 455.41167828 -236.10083008 455.40937042 C-239.81298889 454.80752569 -240.99657092 453.90427656 -243.20556641 450.90600586 C-244.54565775 443.18102769 -241.01081387 437.4816691 -237.51806641 430.74975586 C-236.94096924 429.6068811 -236.36387207 428.46400635 -235.76928711 427.28649902 C-234.24186594 424.26872199 -232.70098342 421.25866441 -231.1529541 418.25146484 C-229.57284632 415.17350202 -228.01111412 412.08624871 -226.44775391 408.99975586 C-223.38379147 402.95985208 -220.30172516 396.92946287 -217.20556641 390.90600586 C-217.95302533 390.90969303 -218.70048426 390.9133802 -219.47059345 390.91717911 C-237.69198438 391.00567256 -255.91333219 391.0717846 -274.13489246 391.11325455 C-282.94685923 391.13384425 -291.7586822 391.16189581 -300.57055664 391.20776367 C-308.25462164 391.24774182 -315.93858244 391.27346476 -323.62274855 391.28235984 C-327.6882087 391.28755609 -331.75337086 391.29969337 -335.81873512 391.32892609 C-339.65272324 391.3562692 -343.48629335 391.36441318 -347.32036972 391.35843658 C-348.72030987 391.35952845 -350.12026539 391.3673694 -351.52012062 391.38282776 C-364.51653237 391.51918964 -374.64323958 389.03450311 -384.20556641 379.90600586 C-393.37084364 370.3051511 -395.81420793 360.03185428 -395.71350098 347.0402832 C-395.71974094 345.78907873 -395.7259809 344.53787426 -395.73240995 343.2487545 C-395.74898521 339.8058135 -395.74091153 336.36332052 -395.72846508 332.92037868 C-395.719368 329.19568913 -395.73340726 325.47107351 -395.74438477 321.74639893 C-395.76212517 314.46162122 -395.75835007 307.17700884 -395.7467342 299.89222479 C-395.73768245 293.9691314 -395.73648339 288.04608417 -395.74082947 282.12298584 C-395.7414424 281.27839164 -395.74205533 280.43379744 -395.74268684 279.56360948 C-395.7439658 277.84756739 -395.74526266 276.1315253 -395.7465772 274.41548324 C-395.75796988 258.34281784 -395.74488993 242.27024385 -395.72337574 226.19759345 C-395.70550594 212.42131537 -395.70861042 198.64517213 -395.72705078 184.86889648 C-395.74848072 168.85180506 -395.75687136 152.83479366 -395.74460173 136.8176899 C-395.7433276 135.10813524 -395.74207011 133.39858056 -395.74082947 131.68902588 C-395.74021237 130.84800084 -395.73959526 130.00697579 -395.73895946 129.14046514 C-395.73551293 123.2278808 -395.74131985 117.31534744 -395.75074768 111.402771 C-395.76199268 104.19242261 -395.75887526 96.9822483 -395.7376247 89.77191973 C-395.72714775 86.09654955 -395.72293463 82.42146909 -395.73622131 78.74610138 C-395.75043282 74.75439405 -395.73340816 70.76341148 -395.71350098 66.77172852 C-395.72242386 65.62064291 -395.73134675 64.4695573 -395.74054003 63.28359032 C-395.62838035 51.65969282 -392.2809353 42.36515466 -384.20556641 33.90600586 C-372.62691491 22.8526618 -360.389143 22.3254025 -345.23999023 22.4519043 C-343.33691431 22.45303423 -341.43383664 22.45239607 -339.53076172 22.45013428 C-334.39299228 22.4489919 -329.25560036 22.47242386 -324.11791825 22.50043011 C-318.73811169 22.52552343 -313.35829539 22.527792 -307.97843933 22.53253174 C-297.80371527 22.54493826 -287.62916419 22.57772836 -277.45451611 22.6179297 C-265.86563051 22.66271984 -254.27673643 22.68465265 -242.68778574 22.70471144 C-218.86028359 22.74646308 -195.03293472 22.81676983 -171.20556641 22.90600586 C-170.76555298 21.98489014 -170.76555298 21.98489014 -170.31665039 21.04516602 C-159.94384381 1.07449335 -132.46345791 -13.9257309 -111.91894531 -20.45117188 C-110.02097185 -21.02085346 -108.11322824 -21.55764843 -106.20556641 -22.09399414 C-105.06732422 -22.4149707 -103.92908203 -22.73594727 -102.75634766 -23.06665039 C-67.49760593 -31.26192549 -28.08930165 -22.91833481 0 0 Z " fill="#F0F1F1" transform="translate(411.20556640625,41.093994140625)"/>
<path d="M0 0 C158.4 0 316.8 0 480 0 C480 57.47722772 480 57.47722772 469 69 C458.7724363 78.76355325 448.01041204 80.60597727 434.25708008 80.45410156 C432.80720043 80.45297075 431.35731851 80.4536115 429.90744019 80.45587158 C426.0051182 80.45701056 422.10329666 80.43363525 418.2010901 80.40557575 C414.11054216 80.38042449 410.0199804 80.37820935 405.92936707 80.37347412 C398.19831812 80.3610844 390.46749776 80.32831756 382.73654908 80.28807616 C373.92875513 80.24323315 365.12094978 80.22134003 356.31306994 80.20129442 C338.20858412 80.15958093 320.1043105 80.08930752 302 80 C302.48859497 80.9505426 302.48859497 80.9505426 302.98706055 81.92028809 C306.06420426 87.91382119 309.12562807 93.91509335 312.16993713 99.92537689 C313.73534881 103.0145725 315.30652885 106.1005275 316.89160156 109.1796875 C318.71649313 112.72536787 320.51503722 116.2840811 322.3125 119.84375 C323.16557739 121.48796936 323.16557739 121.48796936 324.03588867 123.16540527 C326.95871081 129.0076567 329.13871771 133.4358434 328 140 C325.79100451 142.9982707 324.60742248 143.90151983 320.89526367 144.50336456 C319.66525635 144.50487267 318.43524902 144.50638077 317.16796875 144.50793457 C316.48133652 144.51417453 315.79470428 144.5204145 315.08726501 144.52684355 C312.78699379 144.54279568 310.48777903 144.53016168 308.1875 144.51757812 C306.53824241 144.5229983 304.88898966 144.53012037 303.23974609 144.53881836 C298.76039784 144.55706725 294.28141775 144.5499778 289.80206299 144.53730202 C285.11672974 144.52718243 280.43142823 144.5365648 275.74609375 144.54284668 C267.87754653 144.55012613 260.00914943 144.5405276 252.140625 144.52148438 C243.04054229 144.49971504 233.94081804 144.5067662 224.84074402 144.52879 C217.03086781 144.54693554 209.22109958 144.54950647 201.41120911 144.53903532 C196.74527103 144.53279573 192.0795015 144.53197752 187.41357422 144.54518127 C183.02711183 144.55672689 178.64111206 144.54873787 174.25469971 144.52560425 C172.64382699 144.52031022 171.03291542 144.5218428 169.42205811 144.53065491 C167.22485499 144.5415674 165.02913926 144.5279014 162.83203125 144.50793457 C161.60202393 144.50642647 160.3720166 144.50491837 159.10473633 144.50336456 C155.39257752 143.90151983 154.20899549 142.9982707 152 140 C150.65990865 132.27502183 154.19475254 126.57566324 157.6875 119.84375 C158.26459717 118.70087524 158.84169434 117.55800049 159.4362793 116.38049316 C160.96370047 113.36271613 162.50458298 110.35265855 164.0526123 107.34545898 C165.63272009 104.26749616 167.19445229 101.18024285 168.7578125 98.09375 C171.82177494 92.05384622 174.90384124 86.02345701 178 80 C177.25254107 80.00368717 176.50508215 80.00737434 175.73497295 80.01117325 C157.51358202 80.0996667 139.29223422 80.16577874 121.07067394 80.20724869 C112.25870717 80.22783839 103.44688421 80.25588995 94.63500977 80.30175781 C86.95094477 80.34173596 79.26698397 80.3674589 71.58281785 80.37635398 C67.51735771 80.38155023 63.45219554 80.39368751 59.38683128 80.42292023 C55.55284316 80.45026334 51.71927306 80.45840732 47.88519669 80.45243073 C46.48525654 80.45352259 45.08530101 80.46136354 43.68544579 80.4768219 C30.68903404 80.61318378 20.56232682 78.12849725 11 69 C-7.09971049 50.04010525 0 25.38416005 0 0 Z " fill="#6B71F2" transform="translate(16,352)"/>
<path d="M0 0 C0 21.12 0 42.24 0 64 C-5.94 64.99 -5.94 64.99 -12 66 C-26.54502881 69.59136514 -38.05016281 76.77884048 -46.3984375 89.3203125 C-54.34457745 102.61556129 -57.92056482 117.87001569 -54.08984375 133.15234375 C-51.85703162 140.70636131 -48.51651352 147.56001171 -44 154 C-42.9171875 155.546875 -42.9171875 155.546875 -41.8125 157.125 C-32.62597739 167.48551911 -18.72646146 174.0833196 -5.0625 175.37109375 C9.3120377 175.80322576 22.16377638 172.48035945 34 164 C34.56976563 163.60039062 35.13953125 163.20078125 35.7265625 162.7890625 C46.35591518 154.66714686 52.4848435 140.81101296 55 128 C55.33 125.36 55.66 122.72 56 120 C77.12 120 98.24 120 120 120 C118.11502785 153.92949861 108.48461372 180.4034254 85 205 C84.46375 205.59941406 83.9275 206.19882813 83.375 206.81640625 C66.46379474 225.03822992 41.80179865 234.44875168 18 239 C17.22857666 239.17128418 16.45715332 239.34256836 15.66235352 239.51904297 C-12.5521509 244.61602359 -43.75533908 235.79167525 -67.125 219.87109375 C-93.66343193 200.40732033 -113.34243334 173.56940217 -118.8203125 140.51953125 C-119.44436279 136.02437218 -119.77610281 131.53111936 -120 127 C-120.04382813 126.16710449 -120.08765625 125.33420898 -120.1328125 124.47607422 C-121.31819732 98.1259574 -114.05198292 69.70597926 -97 49 C-96.2575 47.75283203 -96.2575 47.75283203 -95.5 46.48046875 C-81.91089227 24.00889737 -53.66118172 8.73523735 -29.02246094 2.49951172 C-19.08690735 0.15274076 -10.51495704 0 0 0 Z " fill="#0FF1B2" transform="translate(336,16)"/>
<path d="M0 0 C10.88373148 8.8166662 18.200172 21.75725801 20.828125 35.4453125 C22.30327263 51.09740521 19.15606296 65.53525404 9.828125 78.4453125 C9.17070312 79.37537109 9.17070312 79.37537109 8.5 80.32421875 C-0.10950959 91.38298537 -13.62163652 97.8668821 -27.171875 100.4453125 C-42.99235982 102.17618549 -57.55338479 98.280136 -70.421875 88.78515625 C-80.80667395 80.15082531 -89.01971848 66.87405772 -91.171875 53.4453125 C-92.72931205 36.3472705 -88.9952916 20.79755205 -77.984375 7.2578125 C-56.94977384 -15.30237512 -24.81585676 -17.76386869 0 0 Z " fill="#EFF1F1" transform="translate(371.171875,91.5546875)"/>
<path d="M0 0 C40.92 0 81.84 0 124 0 C150 52 150 52 150 60 C148.42700195 62.46825409 148.42700195 62.46825409 146 64 C142.89526367 64.50336456 142.89526367 64.50336456 139.16796875 64.50793457 C138.48133652 64.51417453 137.79470428 64.5204145 137.08726501 64.52684355 C134.78699379 64.54279568 132.48777903 64.53016168 130.1875 64.51757812 C128.53824241 64.5229983 126.88898966 64.53012037 125.23974609 64.53881836 C120.76039784 64.55706725 116.28141775 64.5499778 111.80206299 64.53730202 C107.11672974 64.52718243 102.43142823 64.5365648 97.74609375 64.54284668 C89.87754653 64.55012613 82.00914943 64.5405276 74.140625 64.52148438 C65.04054229 64.49971504 55.94081804 64.5067662 46.84074402 64.52879 C39.03086781 64.54693554 31.22109958 64.54950647 23.41120911 64.53903532 C18.74527103 64.53279573 14.0795015 64.53197752 9.41357422 64.54518127 C5.02711183 64.55672689 0.64111206 64.54873787 -3.74530029 64.52560425 C-5.35617301 64.52031022 -6.96708458 64.5218428 -8.57794189 64.53065491 C-10.77514501 64.5415674 -12.97086074 64.5279014 -15.16796875 64.50793457 C-17.01297974 64.50567242 -17.01297974 64.50567242 -18.89526367 64.50336456 C-22 64 -22 64 -24.42700195 62.46825409 C-26 60 -26 60 -26 52 C-17.42 34.84 -8.84 17.68 0 0 Z " fill="#0A0F25" transform="translate(194,432)"/>
<path d="M0 0 C17.66261312 0 17.66261312 0 24.6875 1.5 C25.93406372 1.76067261 25.93406372 1.76067261 27.20581055 2.02661133 C53.39846709 7.93933596 80.36348002 23.66211432 96 46 C97.26070118 48.16927548 98.46801157 50.36047883 99.65625 52.5703125 C100.97971224 54.96331689 102.41269551 57.25237004 103.875 59.5625 C110.72741135 70.97141168 115.03412993 83.07834496 118 96 C118.22558594 96.88042969 118.45117188 97.76085937 118.68359375 98.66796875 C120.4396151 106.09170039 120 111.89891371 120 120 C98.88 120 77.76 120 56 120 C55.34 116.04 54.68 112.08 54 108 C50.04364153 91.9767482 41.9606613 80.71394759 28 72 C18.92671182 67.12987167 10.37403311 65.94513121 0 64 C0 42.88 0 21.76 0 0 Z " fill="#6B71F2" transform="translate(336,16)"/>
<path d="M0 0 C21.12 0 42.24 0 64 0 C62.97688877 18.41600221 60.82476457 34.68239641 52.9375 51.25 C52.54828369 52.06774902 52.15906738 52.88549805 51.75805664 53.72802734 C46.1813976 65.08554548 38.692585 74.82179573 30 84 C26.55323 82.51657 24.32656699 80.56949812 21.69042969 77.91748047 C20.84986023 77.07675995 20.00929077 76.23603943 19.14324951 75.36984253 C17.79616913 74.00727829 17.79616913 74.00727829 16.421875 72.6171875 C15.4953009 71.68778351 14.56872681 70.75837952 13.61407471 69.80081177 C11.15684211 67.3359615 8.70567639 64.86516334 6.2557373 62.39306641 C3.75226191 59.86909235 1.24307937 57.35080612 -1.265625 54.83203125 C-6.18267525 49.89356403 -11.09333788 44.948788 -16 40 C-14.12391727 36.84522819 -12.18164304 33.80852982 -10.0625 30.8125 C-3.54005913 20.96426007 -2.25939599 12.05011196 0 0 Z " fill="#0A0F26" transform="translate(392,136)"/>
<path d="M0 0 C4.23679903 0.88266647 5.42954228 2.11948414 8 5.625 C8.7325739 9.5753148 8.63124967 13.4766409 8.56762695 17.48364258 C8.56835709 18.68406189 8.56908722 19.8844812 8.56983948 21.12127686 C8.56695702 24.40436221 8.54191918 27.68637588 8.50696969 30.96924806 C8.47566929 34.40317245 8.47277259 37.83711891 8.46684265 41.27116394 C8.45131486 47.77002978 8.4103014 54.26847403 8.3600952 60.7671544 C8.30416811 68.16731171 8.27670687 75.56748939 8.25161803 82.9678055 C8.19938412 98.18711432 8.11146323 113.40600275 8 128.625 C8.62414638 128.62223462 9.24829275 128.61946924 9.89135265 128.61662006 C25.08135191 128.5503541 40.2713068 128.50071648 55.46141338 128.46956348 C62.80725484 128.45409751 70.15299979 128.43301324 77.4987793 128.39868164 C83.90169919 128.36877091 90.30454918 128.34942303 96.707537 128.34273452 C100.09759507 128.33882506 103.48745317 128.32964317 106.87744713 128.30780983 C110.6628043 128.28608544 114.44774498 128.28303107 118.2331543 128.28442383 C119.35596802 128.273638 120.47878174 128.26285217 121.63562012 128.2517395 C123.18572029 128.25792549 123.18572029 128.25792549 124.76713562 128.26423645 C126.1097271 128.26008838 126.1097271 128.26008838 127.47944164 128.25585651 C130.57827871 128.70969069 132.46886022 129.81058322 135 131.625 C136.40457737 134.43415474 136.24895157 136.51310534 136 139.625 C134.22015595 142.7609157 133.47691793 143.46602736 130 144.625 C128.207651 144.72173784 126.41190793 144.75995339 124.61695862 144.76544189 C123.49953278 144.77115204 122.38210693 144.77686218 121.2308197 144.78274536 C120.00424149 144.78386322 118.77766327 144.78498108 117.51391602 144.78613281 C115.57705933 144.79358017 115.57705933 144.79358017 113.60107422 144.80117798 C110.05770838 144.81429322 106.51436148 144.82074493 102.97097516 144.82518864 C100.75761933 144.82812008 98.54426868 144.83222497 96.33091545 144.83669281 C89.40683598 144.8503639 82.48276834 144.86003311 75.5586763 144.8638947 C67.56355038 144.86837811 59.56859519 144.88594063 51.5735212 144.9148953 C45.39425256 144.93649807 39.21503202 144.94659819 33.03572601 144.94793582 C29.3445113 144.94898464 25.65345717 144.95490879 21.96228218 144.97275543 C17.84657514 144.99226819 13.73122663 144.9879528 9.61547852 144.98144531 C8.39092453 144.9906601 7.16637054 144.99987488 5.90470886 145.0093689 C4.22434036 145.00101517 4.22434036 145.00101517 2.51002502 144.99249268 C1.05021886 144.99469252 1.05021886 144.99469252 -0.43907833 144.9969368 C-3.46582321 144.55734592 -4.81642524 143.74046467 -7 141.625 C-8.02106747 138.56179758 -8.13549664 136.45733106 -8.15390015 133.24868774 C-8.16250061 132.13270706 -8.17110107 131.01672638 -8.17996216 129.8669281 C-8.18422211 128.64192093 -8.18848206 127.41691376 -8.19287109 126.15478516 C-8.20104858 124.86515366 -8.20922607 123.57552216 -8.21765137 122.24681091 C-8.24383967 117.96924929 -8.25917315 113.69167802 -8.2734375 109.4140625 C-8.27879799 107.94099293 -8.2841755 106.46792342 -8.28956985 104.99485397 C-8.31119153 98.86808686 -8.32992901 92.74132235 -8.34119225 86.61452675 C-8.35743859 77.83527164 -8.3906405 69.05645856 -8.44759309 60.2773701 C-8.48628174 54.10318481 -8.50582347 47.92911783 -8.51111281 41.75481451 C-8.51476706 38.06734607 -8.52679543 34.38034945 -8.55921555 30.69301224 C-8.59486379 26.57974142 -8.59092818 22.46742244 -8.58349609 18.35400391 C-8.59990143 17.1330452 -8.61630676 15.91208649 -8.63320923 14.65412903 C-8.56508515 5.46863584 -8.56508515 5.46863584 -5.65103149 2.36849976 C-3 0.625 -3 0.625 0 0 Z " fill="#0A0F26" transform="translate(64,175.375)"/>
<path d="M0 0 C2.9375 2.0625 2.9375 2.0625 5 5 C5.27493472 8.64288499 4.8569505 10.85870764 2.6374054 13.81471252 C-1.86056076 18.82087915 -6.50421972 23.65037067 -11.26953125 28.40234375 C-12.03174484 29.16551407 -12.79395844 29.92868439 -13.57926941 30.71498108 C-15.17556068 32.31194789 -16.77309553 33.90767253 -18.37182617 35.50219727 C-20.82652823 37.95149736 -23.27578896 40.40614904 -25.72460938 42.86132812 C-27.28092907 44.4169878 -28.83755852 45.97233766 -30.39453125 47.52734375 C-31.12783157 48.2626683 -31.8611319 48.99799286 -32.61665344 49.75559998 C-33.29463486 50.43042923 -33.97261627 51.10525848 -34.67114258 51.80053711 C-35.26735916 52.3959581 -35.86357574 52.99137909 -36.4778595 53.60484314 C-38.52226171 55.47869234 -39.88426481 55.9779552 -42.625 56.5 C-47.8324097 55.7285319 -50.35107895 52.63085708 -54 49 C-54.50499023 48.50193848 -55.00998047 48.00387695 -55.53027344 47.49072266 C-59.04746533 44.02038501 -62.53228048 40.51973531 -66 37 C-69.98704286 38.59752781 -72.6301689 41.39055654 -75.5703125 44.41015625 C-76.09261444 44.93765976 -76.61491638 45.46516327 -77.15304565 46.00865173 C-78.81520334 47.6885713 -80.47049805 49.37504272 -82.125 51.0625 C-83.78750973 52.75263016 -85.45145954 54.4412772 -87.11837769 56.12705994 C-88.1539722 57.17490971 -89.18688183 58.22542114 -90.21682739 59.27882385 C-94.70230778 63.82697437 -94.70230778 63.82697437 -98.8125 64.375 C-102 64 -102 64 -104.875 61.875 C-107 59 -107 59 -107.75 56.1875 C-105.60872644 47.08708738 -94.11762141 38.9656571 -87.61889648 32.48852539 C-85.67118197 30.54622735 -83.7289407 28.5985686 -81.78710938 26.65039062 C-80.54980017 25.41374125 -79.31218132 24.17740158 -78.07421875 22.94140625 C-77.49403488 22.35919815 -76.91385101 21.77699005 -76.31608582 21.17713928 C-71.24314492 16.13392998 -71.24314492 16.13392998 -67.171875 15.6953125 C-63.22871825 16.07408864 -62.06568391 17.14435352 -59.25 19.875 C-58.40179688 20.68582031 -57.55359375 21.49664062 -56.6796875 22.33203125 C-55.79539063 23.21246094 -54.91109375 24.09289062 -54 25 C-53.04440965 25.94154716 -52.08867956 26.88295251 -51.1328125 27.82421875 C-48.73914414 30.20093479 -46.36245239 32.59230916 -44 35 C-41.00906654 33.65791709 -38.93810219 32.18024138 -36.64013672 29.85131836 C-36.00623016 29.21403305 -35.37232361 28.57674774 -34.71920776 27.92015076 C-34.04616608 27.23364944 -33.37312439 26.54714813 -32.6796875 25.83984375 C-31.62988205 24.78223595 -31.62988205 24.78223595 -30.55886841 23.70326233 C-28.32611018 21.4527047 -26.10015735 19.19557104 -23.875 16.9375 C-21.64183957 14.67674302 -19.40724714 12.41744978 -17.16970825 10.161026 C-15.77801112 8.75704949 -14.38899556 7.35040892 -13.00289917 5.94090271 C-12.06149582 4.98970299 -12.06149582 4.98970299 -11.10107422 4.01928711 C-10.5491037 3.45906357 -9.99713318 2.89884003 -9.42843628 2.32164001 C-6.46177065 -0.42322446 -3.93094953 -0.46246465 0 0 Z " fill="#14F1B3" transform="translate(195,200)"/>
<path d="M0 0 C1.28992355 -0.00554901 2.57984711 -0.01109802 3.90885925 -0.01681519 C7.44006301 -0.03104557 10.97048642 -0.01401989 14.50161552 0.00946999 C18.20017049 0.02960069 21.89869375 0.02369828 25.59729004 0.0213623 C31.80799199 0.02141585 38.01838947 0.0411583 44.22900391 0.07324219 C51.40512854 0.11013413 58.5808544 0.11891753 65.75706148 0.11194468 C72.66570695 0.10563518 79.57421594 0.11640218 86.48283386 0.13591003 C89.42052661 0.14407593 92.35814952 0.14679508 95.29585266 0.1452179 C99.3992621 0.14417419 103.50214772 0.1683704 107.60546875 0.1953125 C109.43219368 0.1909166 109.43219368 0.1909166 111.29582214 0.18643188 C112.41455215 0.19778168 113.53328217 0.20913147 114.68591309 0.2208252 C115.65559776 0.22455391 116.62528244 0.22828262 117.6243515 0.23212433 C120.81111338 0.6879518 122.7085672 1.73792472 125.30273438 3.61523438 C126.70731174 6.42438911 126.55168595 8.50333972 126.30273438 11.61523438 C124.52289033 14.75115008 123.77965231 15.45626173 120.30273438 16.61523438 C118.51273399 16.71606778 116.71923081 16.75885168 114.92642212 16.76913452 C113.81044144 16.77773499 112.69446075 16.78633545 111.54466248 16.79519653 C110.3196553 16.79945648 109.09464813 16.80371643 107.83251953 16.80810547 C105.89807228 16.8203717 105.89807228 16.8203717 103.92454529 16.83288574 C99.64698367 16.85907405 95.36941239 16.87440752 91.09179688 16.88867188 C89.6187273 16.89403237 88.1456578 16.89940988 86.67258835 16.90480423 C80.54582123 16.9264259 74.41905672 16.94516338 68.29226112 16.95642662 C59.51300601 16.97267296 50.73419294 17.00587488 41.95510447 17.06282747 C35.78091919 17.10151612 29.60685221 17.12105784 23.43254888 17.12634718 C19.74508045 17.13000143 16.05808382 17.14202981 12.37074661 17.17444992 C8.2574758 17.21009816 4.14515682 17.20616255 0.03173828 17.19873047 C-1.79969978 17.22333847 -1.79969978 17.22333847 -3.6681366 17.2484436 C-12.85362978 17.18031952 -12.85362978 17.18031952 -15.95376587 14.26626587 C-17.69726562 11.61523438 -17.69726562 11.61523438 -18.32226562 8.61523438 C-17.67913342 5.52819977 -16.86972264 3.82906284 -14.56648254 1.66398621 C-10.23282079 -0.76747889 -4.82407743 -0.05253904 0 0 Z " fill="#0A0F26" transform="translate(281.697265625,303.384765625)"/>
<path d="M0 0 C1.28992355 -0.00554901 2.57984711 -0.01109802 3.90885925 -0.01681519 C7.44006301 -0.03104557 10.97048642 -0.01401989 14.50161552 0.00946999 C18.20017049 0.02960069 21.89869375 0.02369828 25.59729004 0.0213623 C31.80799199 0.02141585 38.01838947 0.0411583 44.22900391 0.07324219 C51.40512854 0.11013413 58.5808544 0.11891753 65.75706148 0.11194468 C72.66570695 0.10563518 79.57421594 0.11640218 86.48283386 0.13591003 C89.42052661 0.14407593 92.35814952 0.14679508 95.29585266 0.1452179 C99.3992621 0.14417419 103.50214772 0.1683704 107.60546875 0.1953125 C109.43219368 0.1909166 109.43219368 0.1909166 111.29582214 0.18643188 C112.41455215 0.19778168 113.53328217 0.20913147 114.68591309 0.2208252 C115.65559776 0.22455391 116.62528244 0.22828262 117.6243515 0.23212433 C120.81111338 0.6879518 122.7085672 1.73792472 125.30273438 3.61523438 C126.70731174 6.42438911 126.55168595 8.50333972 126.30273438 11.61523438 C124.52289033 14.75115008 123.77965231 15.45626173 120.30273438 16.61523438 C118.51273399 16.71606778 116.71923081 16.75885168 114.92642212 16.76913452 C113.81044144 16.77773499 112.69446075 16.78633545 111.54466248 16.79519653 C110.3196553 16.79945648 109.09464813 16.80371643 107.83251953 16.80810547 C105.89807228 16.8203717 105.89807228 16.8203717 103.92454529 16.83288574 C99.64698367 16.85907405 95.36941239 16.87440752 91.09179688 16.88867188 C89.6187273 16.89403237 88.1456578 16.89940988 86.67258835 16.90480423 C80.54582123 16.9264259 74.41905672 16.94516338 68.29226112 16.95642662 C59.51300601 16.97267296 50.73419294 17.00587488 41.95510447 17.06282747 C35.78091919 17.10151612 29.60685221 17.12105784 23.43254888 17.12634718 C19.74508045 17.13000143 16.05808382 17.14202981 12.37074661 17.17444992 C8.2574758 17.21009816 4.14515682 17.20616255 0.03173828 17.19873047 C-1.79969978 17.22333847 -1.79969978 17.22333847 -3.6681366 17.2484436 C-12.85362978 17.18031952 -12.85362978 17.18031952 -15.95376587 14.26626587 C-17.69726562 11.61523438 -17.69726562 11.61523438 -18.32226562 8.61523438 C-17.67913342 5.52819977 -16.86972264 3.82906284 -14.56648254 1.66398621 C-10.23282079 -0.76747889 -4.82407743 -0.05253904 0 0 Z " fill="#0A0F26" transform="translate(281.697265625,271.384765625)"/>
<path d="M0 0 C0.80232056 -0.00004028 1.60464111 -0.00008057 2.43127441 -0.00012207 C4.12239443 0.00522359 5.8135146 0.02276578 7.50439453 0.05175781 C10.08573724 0.09362006 12.66446867 0.09282315 15.24609375 0.0859375 C16.89324721 0.09643096 18.54038728 0.10936992 20.1875 0.125 C21.3392572 0.12530212 21.3392572 0.12530212 22.51428223 0.12561035 C27.02599744 0.22473308 30.01087988 0.78722566 33.59375 3.59375 C34.99832737 6.40290474 34.84270157 8.48185534 34.59375 11.59375 C32.81390595 14.7296657 32.07066793 15.43477736 28.59375 16.59375 C25.83664043 16.71468389 23.10557638 16.78187326 20.34765625 16.796875 C19.13637306 16.80542511 19.13637306 16.80542511 17.90061951 16.81414795 C16.19344388 16.82358834 14.48625011 16.83012812 12.77905273 16.83398438 C10.16943625 16.8437009 7.56060393 16.8747369 4.95117188 16.90625 C3.29167134 16.91277933 1.63216518 16.91803007 -0.02734375 16.921875 C-0.80661728 16.9342218 -1.58589081 16.9465686 -2.38877869 16.95928955 C-5.67506266 16.9457938 -7.99136563 16.82910765 -10.88085938 15.18994141 C-12.65730202 13.33104544 -13.11884837 12.25184068 -13.46875 9.71875 C-13.58347656 9.06132812 -13.69820312 8.40390625 -13.81640625 7.7265625 C-12.44387172 0.58938296 -6.11332719 -0.13053482 0 0 Z " fill="#FDFDFE" transform="translate(245.40625,383.40625)"/>
</svg>
